:FULLY-SPECIFIED
:DEGREES
79
root -0.567874014377594 -0.567874014377594 -0.567874014377594 -0.5678755879732001 -0.5678755879732001 -0.5678755879732001
lhipjoint -9.671654586443837e-08 -1.5341245206083327e-07 1.0672170578144923e-06
lfemur -42.022434925085385 12.706313611096025 -20.487738104174575
ltibia 52.323391552029285 -2.612749439287674e-06 -2.0384393775661762e-07
lfoot -17.517647419067455 -6.355164524560817e-07 -3.4870158366363753
ltoes -56.68111029910536 -8.194670130132056e-07 3.027703228359619e-06
rhipjoint 1.1005675908711953e-07 6.870210827458292e-07 -1.494104084495789e-06
rfemur -39.98694292977321 -0.092510376635327 9.112633484955913
rtibia 53.43933176428806 3.7484496916146896e-06 -3.4398900875253155e-06
rfoot -29.48060251448702 1.1078901946365474e-06 -4.3461744467182895
rtoes -18.455977099696515 -7.701269919063497e-07 -1.9244975582134305e-06
lowerback 35.19744352903101 1.5310961854850784 -2.113424667185437
upperback 3.311916893630517 1.7193088782539496 2.1248861514995414
thorax -14.392205788835689 0.9499154957303991 2.9095792644856266
lowerneck -11.457395592112624 -2.029057957114028 -1.9248847656666397
upperneck 23.5797988923852 -3.0151462414105206 2.3060364286666197
head 9.370881229926802 -1.331763944747426 0.7745436119620046
lclavicle -1.4085775951116125e-07 5.4855408257763046e-08 -1.0938974842598547e-06
lhumerus 30.57513691388698 -24.843655388857066 73.14481684055754
lradius 54.762913142409815 -1.968696785177543e-06 3.9292232597115934e-06
lwrist -5.293128971988989e-07 -31.769030075143114 1.276311684239207e-07
lhand -4.562975323145072 2.6246558075710764e-07 -26.656099019086014
lfingers 7.125022823272814 9.845282338726802e-08 3.18924141240953e-07
lthumb 21.213298854421275 -1.2803152392500461e-07 2.20318914769186
rclavicle 1.398304276268298e-07 4.3880174074018323e-07 -1.3740421654916584e-06
rhumerus 30.10193116290474 6.33421156833769 -70.33611328025407
rradius 66.15922720654866 -3.461138024796988e-06 -1.023553996036362e-05
rwrist 3.4529989599226854e-07 37.13324549831227 7.718939045318712e-07
rhand -6.972260092956778 2.0321462048512455e-07 -36.68780446630613
rfingers 7.125022396385991 5.1024341088409163e-08 -3.1892353057445414e-07
rthumb 18.897492480477187 1.5447771905696147e-06 -65.78980959509936
80
root -0.567874014377594 -0.567874014377594 -0.567874014377594 -0.5678755879732001 -0.5678755879732001 -0.5678755879732001
lhipjoint -9.671654586443837e-08 -1.5341245206083327e-07 1.0672170578144923e-06
lfemur -39.59493788273866 12.607384297383915 -20.533367182924845
ltibia 49.05208269433543 -2.620228475454479e-06 -7.320786014740631e-07
lfoot -16.165681482302425 9.919341936151243e-07 -3.0691030283063285
ltoes -56.194145132040134 -1.3037232057058693e-06 2.1513052025479643e-06
rhipjoint 1.1005675908711953e-07 6.870210827458292e-07 -1.494104084495789e-06
rfemur -35.965365112510135 1.2579419795374591 8.42789421405744
rtibia 46.492537604764856 2.009467526861663e-06 -4.2221530583186315e-06
rfoot -27.407841591968666 1.1902031533483228e-06 -7.052733808644692
rtoes -17.239520408517244 1.0529231870761212e-06 -2.1293427854726475e-06
lowerback 35.84655055680317 1.357185802116508 -2.35137458404693
upperback 3.494473976323206 1.44849198438465 2.422094789600065
thorax -14.333134897798832 0.8530222720820396 3.4162424836737606
lowerneck -11.457395592112624 -2.029057957114028 -1.9248847656666397
upperneck 23.5797988923852 -3.0151462414105206 2.3060364286666197
head 9.370881229926802 -1.331763944747426 0.7745436119620046
lclavicle -1.4085775951116125e-07 5.4855408257763046e-08 -1.0938974842598547e-06
lhumerus 39.6460413581087 -25.672789127677838 71.3845541480402
lradius 48.576605905454166 -9.36218508927119e-07 2.501706046693927e-06
lwrist -5.390809149588599e-07 -32.185951652269864 1.2998446083273557e-07
lhand -4.562975323145072 2.6246558075710764e-07 -26.656099019086014
lfingers 7.125022823272814 9.845282338726802e-08 3.18924141240953e-07
lthumb 21.213298854421275 -1.2803152392500461e-07 2.20318914769186
rclavicle 1.398304276268298e-07 4.3880174074018323e-07 -1.3740421654916584e-06
rhumerus 40.171115565648016 7.797999654646878 -67.31344721401078
rradius 60.24414678153422 -3.857161763071361e-06 -9.001040992966617e-06
rwrist 3.173566366717405e-07 35.14052414758271 7.094252152553077e-07
rhand -6.972260092956778 2.0321462048512455e-07 -36.68780446630613
rfingers 7.125022396385991 5.1024341088409163e-08 -3.1892353057445414e-07
rthumb 18.897492480477187 1.5447771905696147e-06 -65.78980959509936
81
root -0.567874014377594 -0.567874014377594 -0.567874014377594 -0.5678755879732001 -0.5678755879732001 -0.5678755879732001
lhipjoint -9.671654586443837e-08 -1.5341245206083327e-07 1.0672170578144923e-06
lfemur -36.32710900642693 11.39542016313122 -20.0865157168551
ltibia 44.35758097966436 -2.5029605592380457e-06 -6.803178983658014e-07
lfoot -14.871686776117876 -6.45052556890889e-08 -1.7135843259558328
ltoes -55.8693320709656 1.2933486943348095e-06 2.9381512254150827e-06
rhipjoint 1.1005675908711953e-07 6.870210827458292e-07 -1.494104084495789e-06
rfemur -30.90966933415045 2.520323795478838 8.113798573564294
rtibia 37.70008289753163 1.8019217287890712e-06 -2.818950956840817e-06
rfoot -24.923618121017697 -3.195262329643728e-07 -10.13767070955099
rtoes -15.537778776808567 3.999431994194342e-07 -1.6078681998973722e-06
lowerback 36.1139012363904 1.1400132139884882 -2.219838801010824
upperback 3.380355602557456 1.2241884653197255 2.679115234954468
thorax -14.489081776928565 0.7549955038357223 3.654861545630503
lowerneck -11.457395592112624 -2.029057957114028 -1.9248847656666397
upperneck 23.5797988923852 -3.0151462414105206 2.3060364286666197
head 9.370881229926802 -1.331763944747426 0.7745436119620046
lclavicle -1.4085775951116125e-07 5.4855408257763046e-08 -1.0938974842598547e-06
lhumerus 49.16080906063828 -24.300284812078576 71.93745796135272
lradius 42.82893000190215 -1.7300845503094135e-06 1.388342142895018e-06
lwrist -5.611660251115689e-07 -33.108242341180436 1.353110375355323e-07
lhand -4.562975323145072 2.6246558075710764e-07 -26.656099019086014
lfingers 7.125022823272814 9.845282338726802e-08 3.18924141240953e-07
lthumb 21.213298854421275 -1.2803152392500461e-07 2.20318914769186
rclavicle 1.398304276268298e-07 4.3880174074018323e-07 -1.3740421654916584e-06
rhumerus 49.85208909144069 8.856868513748323 -64.69779895059771
rradius 54.874825791960475 -2.4299877446260434e-06 -6.91403856563561e-06
rwrist 2.9570611751070675e-07 33.492600991439154 6.610269945562893e-07
rhand -6.972260092956778 2.0321462048512455e-07 -36.68780446630613
rfingers 7.125022396385991 5.1024341088409163e-08 -3.1892353057445414e-07
rthumb 18.897492480477187 1.5447771905696147e-06 -65.78980959509936
82
root -0.567874014377594 -0.567874014377594 -0.567874014377594 -0.5678755879732001 -0.5678755879732001 -0.5678755879732001
lhipjoint -9.671654586443837e-08 -1.5341245206083327e-07 1.0672170578144923e-06
lfemur -32.772514637812215 9.31943966019285 -19.301909688780935
ltibia 39.08952778981981 -1.4920190655132462e-06 1.528017855619923e-07
lfoot -13.900462050672388 -8.942020075853635e-07 0.30783697273801847
ltoes -55.55041004805019 -4.814919090079101e-07 1.6712083611566566e-06
rhipjoint 1.1005675908711953e-07 6.870210827458292e-07 -1.494104084495789e-06
rfemur -25.518901550582864 3.460460274586777 8.09104294457075
rtibia 28.277532994080975 1.9522963185736703e-06 -3.7683085661569988e-06
rfoot -22.283748299260477 1.4218962314513346e-06 -13.079527953950217
rtoes -13.6373853619583 -2.936383753011937e-07 -1.4884088051720981e-06
lowerback 36.06891761051669 0.8995768948256994 -1.9314408934962057
upperback 3.0145310974983963 1.018121978225558 2.8622195865544042
thorax -14.83011995237647 0.6507530500012819 3.7248573242447938
lowerneck -11.457395592112624 -2.029057957114028 -1.9248847656666397
upperneck 23.5797988923852 -3.0151462414105206 2.3060364286666197
head 9.370881229926802 -1.331763944747426 0.7745436119620046
lclavicle -1.4085775951116125e-07 5.4855408257763046e-08 -1.0938974842598547e-06
lhumerus 58.562055604067666 -20.872011377068663 74.65593472272033
lradius 37.54670758462441 -2.046682153967532e-06 1.5473132885393013e-06
lwrist -6.146216330873636e-07 -35.227458795338634 1.4819906493804043e-07
lhand -4.562975323145072 2.6246558075710764e-07 -26.656099019086014
lfingers 7.125022823272814 9.845282338726802e-08 3.18924141240953e-07
lthumb 21.213298854421275 -1.2803152392500461e-07 2.20318914769186
rclavicle 1.398304276268298e-07 4.3880174074018323e-07 -1.3740421654916584e-06
rhumerus 58.84253049214507 9.189117089508068 -62.803534776753885
rradius 49.804414371034 -3.011528708360317e-06 -4.959615499201976e-06
rwrist 2.809488526774651e-07 32.31375132182997 6.28039706288647e-07
rhand -6.972260092956778 2.0321462048512455e-07 -36.68780446630613
rfingers 7.125022396385991 5.1024341088409163e-08 -3.1892353057445414e-07
rthumb 18.897492480477187 1.5447771905696147e-06 -65.78980959509936
